Coordinates
version=1
nRows=8
nColumns=34
inDegrees=yes

Units are S.I. units (second, meters, Newtons, ...)
If the header above contains a line with 'inDegrees', this indicates whether rotational values are in degrees (yes) or radians (no).

endheader
time	pelvis_tilt	pelvis_list	pelvis_rotation	pelvis_tx	pelvis_ty	pelvis_tz	hip_flexion_r	hip_adduction_r	hip_rotation_r	knee_angle_r	ankle_angle_r	subtalar_angle_r	mtp_angle_r	hip_flexion_l	hip_adduction_l	hip_rotation_l	knee_angle_l	ankle_angle_l	subtalar_angle_l	mtp_angle_l	lumbar_extension	lumbar_bending	lumbar_rotation	arm_flex_r	arm_add_r	arm_rot_r	elbow_flex_r	pro_sup_r	arm_flex_l	arm_add_l	arm_rot_l	elbow_flex_l	pro_sup_l
      3.36666670	     35.96479339	      1.81322127	    -21.99004339	      1.09258530	      1.04458206	     -0.30081487	    -15.95862939	    -19.12578496	     -5.57321264	     58.89656671	     10.25341488	    -35.00000000	      0.00000000	    -30.00000025	     20.27760711	      8.04020382	      0.00000000	    -17.34626025	    -35.00000000	      0.00000000	    -59.39255846	    -16.50557278	     -8.64837737	     16.32169842	     -4.02599440	     36.33248485	     13.50939638	     73.97090147	     23.41224753	    -10.18262648	     53.83110451	     15.32162994	     58.88141959
      3.38333330	     36.05213957	      2.73708161	    -22.43901872	      1.09975589	      1.03895814	     -0.29669241	    -13.58205795	    -20.20595647	     -4.26437458	     60.50275416	      8.20066039	    -35.00000000	      0.00000000	    -30.00000025	     21.39014236	      8.59542367	      0.00000000	    -15.96685173	    -35.00000000	      0.00000000	    -59.07499546	    -17.67263645	     -9.02562449	     16.10840151	     -3.81288931	     36.40222401	     13.62411253	     73.83986997	     23.64889172	    -10.54967273	     54.12645144	     15.59067210	     58.88967265
      3.40000000	     35.97076878	      3.27147210	    -22.67509791	      1.10632855	      1.03917230	     -0.29453897	    -10.46592376	    -20.69892210	     -2.27499058	     61.92378835	      6.24795253	    -35.00000000	      0.00000000	    -30.00000025	     21.99536109	      9.60768104	      0.00000000	    -15.57373728	    -35.00000000	      0.00000000	    -58.89077169	    -18.29444464	     -9.13980267	     16.06410254	     -3.68472753	     36.46398333	     13.78460552	     73.72278249	     23.96482064	    -10.83369217	     54.36951041	     15.83598372	     58.89564238
      3.41666670	     35.66279791	      3.51378896	    -22.77888880	      1.11230490	      1.03890681	     -0.29123905	     -7.41583610	    -20.52954391	     -0.18296545	     62.29798753	      4.84825424	    -35.00000000	      0.00000000	    -30.00000025	     22.15153504	     10.07394942	      0.00000000	    -15.16221132	    -35.00000000	      0.00000000	    -58.57565762	    -18.61815681	     -9.12830309	     16.08624803	     -3.59636626	     36.52229593	     13.98248950	     73.60550111	     24.32643566	    -11.08579034	     54.57811105	     16.05508596	     58.89604883
      3.43333330	     35.17180845	      3.50866467	    -22.82749576	      1.11764147	      1.03934684	     -0.28814425	     -4.90535290	    -19.86623043	      1.60952275	     61.21296051	      4.02091998	    -35.00000000	      0.00000000	    -30.00000025	     21.94273324	     10.17408087	      0.00000000	    -15.67251523	    -35.00000000	      0.00000000	    -58.28516076	    -18.71140176	     -8.78462803	     16.13368067	     -3.60586177	     36.60737321	     14.23259121	     73.44985032	     24.75873129	    -11.27921760	     54.79921747	     16.30604311	     58.87991017
      3.45000000	     34.53225205	      3.36567295	    -22.74640457	      1.12283291	      1.04268743	     -0.28668074	     -2.92355174	    -19.00606909	      2.66353982	     59.12266167	      3.72162704	    -35.00000000	      0.00000000	    -30.00000025	     21.48006945	     10.53955338	      0.00000000	    -16.40491618	    -35.00000000	      0.00000000	    -58.13004067	    -18.49592425	     -8.53821001	     16.42958346	     -3.58791855	     36.64612583	     14.43190777	     73.37617834	     25.28915645	    -11.44116507	     54.83774134	     16.38213835	     58.85907722
      3.46666670	     34.71120718	      2.26438277	    -22.12754515	      1.12734683	      1.04530323	     -0.28519166	     -2.89294124	    -17.50922794	      2.37928193	     55.83817679	      2.99805971	    -35.00000000	      0.00000000	    -30.00000025	     20.36940565	      8.96904622	      2.66438000	    -16.02536349	    -35.00000000	      0.00000000	    -59.04723263	    -17.32369250	     -7.67538285	     16.88166985	     -4.09526904	     36.82539922	     14.74918979	     73.19760828	     26.09638564	    -11.21084490	     54.93017069	     16.57749691	     58.78885694
      3.48333330	     34.91405692	      0.63311632	    -21.18603578	      1.13318672	      1.05136436	     -0.28440034	     -3.61961609	    -15.48362000	      1.14495270	     51.84649126	      1.90110773	    -35.00000000	      0.00000000	    -30.00000025	     18.63203897	      7.25198192	      5.87895170	    -14.65167858	    -35.00000000	      0.00000000	    -60.37415177	    -15.53178450	     -6.91304301	     17.56757568	     -4.49599500	     37.02954989	     15.05751315	     73.07224590	     26.85336099	    -10.93766619	     54.92208811	     16.54444350	     58.70696607
